<svg xmlns="http://www.w3.org/2000/svg" xmlns:xlink="http://www.w3.org/1999/xlink" viewBox="0 0 396.62 500"><defs><style>.cls-1,.cls-2{fill:#d6d8e5;}.cls-1{opacity:0.4;}.cls-3{fill:#b1b6c4;}.cls-4{fill:#c4c7d6;}.cls-5{fill:#38226d;}.cls-6{fill:#9c73ff;}.cls-7{fill:#8c50ff;}.cls-8{fill:#ffcea9;}.cls-9{fill:#ededed;}.cls-10{fill:#e5e5e5;}.cls-11{fill:#f4f4f4;}.cls-12{fill:#bfbfbf;}.cls-13{fill:#3a2c6d;}.cls-14{fill:#dceeff;}.cls-15{fill:#dbdbdb;}.cls-16{fill:#1e3779;}.cls-17{fill:#031f60;}.cls-18{fill:#b1b4c4;}.cls-19{fill:#9ea1af;}.cls-20{fill:#e4e7f2;}.cls-21{fill:#201d38;}.cls-22{opacity:0.3;fill:url(#Безымянный_градиент_15);}.cls-23{fill:#a298e2;}.cls-24{fill:#f4ce2c;}.cls-25{fill:#4d3bff;}.cls-26{fill:#ff8657;}.cls-27{fill:#c33afc;}.cls-28{fill:#a6ce28;}.cls-29{fill:#bcd64d;}.cls-30{fill:#28221c;}.cls-31{fill:#fff;opacity:0.07;}.cls-32{fill:#8da01f;}.cls-33{fill:#99b524;}.cls-34{fill:#e4e6ef;}</style><linearGradient id="Безымянный_градиент_15" x1="101.94" y1="197.18" x2="389.84" y2="197.18" gradientUnits="userSpaceOnUse"><stop offset="0.21" stop-color="#fff" stop-opacity="0"/><stop offset="1" stop-color="#fff" stop-opacity="0.2"/></linearGradient></defs><title>Coding_SVG</title><g id="Слой_2" data-name="Слой 2"><g id="Слой_1-2" data-name="Слой 1"><g id="monitor"><path class="cls-1" d="M222.1,375l-56.92-32.86c-4.11-2.37-3.59-6.51,1.15-9.25l36.88-21.29L275,353.08l-36.87,21.29C233.38,377.11,226.21,377.4,222.1,375Z"/><path class="cls-18" d="M226.26,372.59l-56.93-32.87c-4.1-2.37-3.58-6.5,1.15-9.24l36.88-21.29,71.79,41.44-36.88,21.3C237.53,374.66,230.36,375,226.26,372.59Z"/><polygon class="cls-18" points="279.15 350.63 279.15 348.46 275.84 350.37 279.15 350.63"/><polygon class="cls-18" points="166.56 335.81 166.56 333.6 169.97 335.01 166.56 335.81"/><path class="cls-2" d="M226.26,370.42l-56.93-32.87c-4.1-2.37-3.58-6.51,1.15-9.24L207.36,307l71.79,41.45-36.88,21.29C237.53,372.49,230.36,372.78,226.26,370.42Z"/><polygon class="cls-19" points="207.56 307.11 198.67 277.63 271.24 319.26 279.15 348.46 207.56 307.11"/><path class="cls-19" d="M277.05,349.67l2.1-1.21L276,346Z"/><polygon class="cls-18" points="205.27 308.22 196.38 278.74 268.95 320.37 277.05 349.67 205.27 308.22"/><path class="cls-4" d="M389.49,399.35,108.58,237.17c-3.94-2.28-7.13-8.38-7.13-13.63V6.25c0-5.25,3.19-7.67,7.13-5.39L389.49,163c3.94,2.27,7.13,8.37,7.13,13.63V394C396.62,399.21,393.43,401.63,389.49,399.35Z"/><polygon class="cls-4" points="390.93 401.59 394.05 399.8 392.7 390.57 390.93 401.59"/><path class="cls-18" d="M100.94,2.19,104,.43l4.4,2.51s-4.69.71-4.8.68S100.94,2.19,100.94,2.19Z"/><path class="cls-20" d="M386.91,400.84,106,238.66c-3.94-2.28-7.14-8.38-7.14-13.63V7.74c0-5.26,3.2-7.67,7.14-5.4l280.9,162.18c3.94,2.28,7.14,8.38,7.14,13.64V395.44C394.05,400.7,390.85,403.11,386.91,400.84Z"/><path class="cls-21" d="M386.42,401.12,105.51,238.94c-3.94-2.28-7.13-8.38-7.13-13.63V8c0-5.25,3.19-7.67,7.13-5.39L386.42,164.81c3.94,2.27,7.13,8.37,7.13,13.63V395.73C393.55,401,390.36,403.4,386.42,401.12Z"/><path class="cls-22" d="M389.69,387.91,101.94,221.78l.15-212.89c0-2.18,1.53-3.06,3.42-2L386.42,169.1a7.55,7.55,0,0,1,3.42,5.92Z"/><polygon class="cls-23" points="276.62 142.08 257.55 131.07 257.55 124.19 276.62 135.2 276.62 142.08"/><polygon class="cls-24" points="320.7 167.55 280.19 144.14 280.19 137.26 320.7 160.67 320.7 167.55"/><polygon class="cls-23" points="276.62 164.09 257.55 153.09 257.55 146.21 276.62 157.21 276.62 164.09"/><polygon class="cls-25" points="293.61 174.07 280.19 166.16 280.19 159.28 293.61 167.19 293.61 174.07"/><polygon class="cls-23" points="276.62 175.1 257.55 164.09 257.55 157.21 276.62 168.22 276.62 175.1"/><polygon class="cls-25" points="302.83 190.23 280.19 177.16 280.19 170.28 302.83 183.35 302.83 190.23"/><polygon class="cls-23" points="276.62 186.1 257.55 175.1 257.55 168.22 276.62 179.23 276.62 186.1"/><polygon class="cls-26" points="339.9 222.56 280.19 188.17 280.19 181.29 339.9 215.69 339.9 222.56"/><polygon class="cls-23" points="276.62 153.09 257.55 142.08 257.55 135.2 276.62 146.21 276.62 153.09"/><polygon class="cls-23" points="354.57 198.14 280.19 155.15 280.19 148.27 354.57 191.26 354.57 198.14"/><polygon class="cls-23" points="276.62 197.11 257.55 186.1 257.55 179.22 276.62 190.23 276.62 197.11"/><polygon class="cls-27" points="344.53 237.01 280.19 199.18 280.19 192.3 344.53 230.13 344.53 237.01"/><polygon class="cls-23" points="276.62 219.13 257.55 208.12 257.55 201.24 276.62 212.25 276.62 219.13"/><polygon class="cls-23" points="355.26 264.53 280.19 221.19 280.19 214.31 355.26 257.65 355.26 264.53"/><polygon class="cls-23" points="276.62 230.13 257.55 219.13 257.55 212.25 276.62 223.25 276.62 230.13"/><polygon class="cls-27" points="302.83 245.27 280.19 232.19 280.19 225.32 302.83 238.39 302.83 245.27"/><polygon class="cls-23" points="276.62 241.14 257.55 230.13 257.55 223.25 276.62 234.26 276.62 241.14"/><polygon class="cls-25" points="326.45 270.03 280.19 243.2 280.19 236.32 326.45 263.15 326.45 270.03"/><polygon class="cls-23" points="276.62 208.12 257.55 197.11 257.55 190.23 276.62 201.24 276.62 208.12"/><polygon class="cls-25" points="288.53 215 280.19 210.18 280.19 203.3 288.53 208.12 288.53 215"/><polygon class="cls-23" points="276.62 252.15 257.55 241.14 257.55 234.26 276.62 245.27 276.62 252.15"/><polygon class="cls-27" points="310.05 271.41 280.19 254.21 280.19 247.33 310.05 264.53 310.05 271.41"/><polygon class="cls-23" points="276.62 274.16 257.55 263.15 257.55 256.27 276.62 267.28 276.62 274.16"/><polygon class="cls-26" points="323.76 301.06 280.19 276.22 280.19 269.34 323.76 294.18 323.76 301.06"/><polygon class="cls-23" points="276.62 285.17 257.55 274.16 257.55 267.28 276.62 278.29 276.62 285.17"/><polygon class="cls-23" points="285.63 290.67 280.19 287.23 280.19 280.35 285.63 283.79 285.63 290.67"/><polygon class="cls-23" points="276.62 296.17 257.55 285.17 257.55 278.29 276.62 289.29 276.62 296.17"/><polygon class="cls-24" points="305.18 312.63 280.19 298.24 280.19 291.36 305.18 305.75 305.18 312.63"/><polygon class="cls-23" points="276.62 263.15 257.55 252.15 257.55 245.26 276.62 256.27 276.62 263.15"/><polygon class="cls-25" points="314.96 285.17 280.19 265.21 280.19 258.34 314.96 278.29 314.96 285.17"/><polygon class="cls-23" points="153.28 73.29 134.21 62.28 134.21 55.4 153.28 66.41 153.28 73.29"/><polygon class="cls-27" points="237.88 122.13 156.85 75.35 156.85 68.47 237.88 115.25 237.88 122.13"/><polygon class="cls-23" points="153.28 95.3 134.21 84.29 134.21 77.41 153.28 88.42 153.28 95.3"/><polygon class="cls-24" points="210.47 128.32 156.85 97.36 156.85 90.48 210.47 121.44 210.47 128.32"/><polygon class="cls-23" points="153.28 106.31 134.21 95.3 134.21 88.42 153.28 99.43 153.28 106.31"/><polygon class="cls-26" points="223.58 146.89 156.85 108.37 156.85 101.49 223.58 140.01 223.58 146.89"/><polygon class="cls-23" points="153.28 117.31 134.21 106.31 134.21 99.43 153.28 110.43 153.28 117.31"/><polygon class="cls-23" points="203.32 146.21 156.85 119.38 156.85 112.5 203.32 139.33 203.32 146.21"/><polygon class="cls-23" points="153.28 84.29 134.21 73.28 134.21 66.41 153.28 77.41 153.28 84.29"/><polygon class="cls-25" points="197.36 109.75 156.85 86.36 156.85 79.48 197.36 102.87 197.36 109.75"/><polygon class="cls-23" points="153.28 128.32 134.21 117.31 134.21 110.43 153.28 121.44 153.28 128.32"/><polygon class="cls-27" points="180.68 144.14 156.85 130.38 156.85 123.5 180.68 137.26 180.68 144.14"/><polygon class="cls-23" points="153.28 150.33 134.21 139.32 134.21 132.45 153.28 143.45 153.28 150.33"/><polygon class="cls-24" points="231.92 195.74 156.85 152.4 156.85 145.52 231.92 188.86 231.92 195.74"/><polygon class="cls-23" points="153.28 161.34 134.21 150.33 134.21 143.45 153.28 154.46 153.28 161.34"/><polygon class="cls-26" points="179.49 176.47 156.85 163.4 156.85 156.52 179.49 169.59 179.49 176.47"/><polygon class="cls-23" points="153.28 172.35 134.21 161.34 134.21 154.46 153.28 165.47 153.28 172.35"/><polygon class="cls-23" points="223.58 212.93 156.85 174.41 156.85 167.53 223.58 206.06 223.58 212.93"/><polygon class="cls-23" points="153.28 139.33 134.21 128.32 134.21 121.44 153.28 132.45 153.28 139.33"/><polygon class="cls-25" points="220 177.85 156.85 141.39 156.85 134.51 220 170.97 220 177.85"/><polygon class="cls-23" points="153.28 183.35 134.21 172.34 134.21 165.47 153.28 176.47 153.28 183.35"/><polygon class="cls-27" points="165.19 190.23 156.85 185.42 156.85 178.54 165.19 183.35 165.19 190.23"/><polygon class="cls-23" points="153.28 205.37 134.21 194.36 134.21 187.48 153.28 198.49 153.28 205.37"/><polygon class="cls-24" points="172.34 216.37 156.85 207.43 156.85 200.55 172.34 209.49 172.34 216.37"/><polygon class="cls-23" points="153.28 216.37 134.21 205.37 134.21 198.49 153.28 209.49 153.28 216.37"/><polygon class="cls-26" points="197.36 241.83 156.85 218.44 156.85 211.56 197.36 234.95 197.36 241.83"/><polygon class="cls-23" points="153.28 227.38 134.21 216.37 134.21 209.49 153.28 220.5 153.28 227.38"/><polygon class="cls-23" points="221.19 266.59 156.85 229.44 156.85 222.56 221.19 259.71 221.19 266.59"/><polygon class="cls-23" points="153.28 194.36 134.21 183.35 134.21 176.47 153.28 187.48 153.28 194.36"/><polygon class="cls-25" points="237.88 243.2 156.85 196.42 156.85 189.54 237.88 236.32 237.88 243.2"/></g></g></g></svg>